<svg version="1.1" id="Layer_1" xmlns="http://www.w3.org/2000/svg" xmlns:xlink="http://www.w3.org/1999/xlink" x="0px" y="0px"
	 width="100%" viewBox="0 0 352 336" enable-background="new 0 0 352 336" xml:space="preserve">
<path fill="#000000" opacity="1.000000" stroke="none" 
	d="
M141.468658,337.000000 
	C133.997726,334.356445 126.560814,333.278625 119.502113,330.714386 
	C58.850094,308.680969 21.500765,266.382660 9.646680,202.828659 
	C1.415689,158.699371 8.957305,116.964798 33.563980,79.009666 
	C58.031994,41.268406 93.198273,18.687021 136.751816,9.284340 
	C181.999420,-0.484069 225.945450,4.530818 266.323181,27.328554 
	C304.973145,49.150745 330.365356,82.724754 341.564484,125.861366 
	C352.987061,169.858490 349.186340,212.685196 327.584930,253.227737 
	C314.209473,278.331421 295.094849,298.072113 270.971466,313.216217 
	C257.966156,321.380646 245.259918,329.918060 230.213730,333.984833 
	C227.007660,334.851410 223.801147,335.716461 220.297424,336.791077 
	C193.979111,337.000000 167.958206,337.000000 141.468658,337.000000 
M73.128647,58.700809 
	C61.036896,69.629089 50.999439,82.197884 43.020451,96.409668 
	C26.186237,126.393974 21.341749,158.622208 25.290764,192.416260 
	C29.479366,228.260620 44.709000,258.921631 71.403992,282.968231 
	C114.511452,321.798950 165.250473,330.399200 220.526962,317.275665 
	C233.998764,314.077271 247.516922,309.570160 258.299286,300.819580 
	C283.302063,280.528198 284.032715,237.400146 263.232544,216.997772 
	C251.304993,205.298279 237.010925,198.419052 221.544418,193.300476 
	C199.736206,186.083160 177.147919,181.710190 155.154022,175.196060 
	C137.468491,169.957993 119.497253,165.296417 103.879654,154.784103 
	C82.891037,140.656525 70.914696,121.654060 70.492134,95.707787 
	C70.263214,81.651436 72.629654,68.347641 78.581619,55.330727 
	C76.135666,55.655670 74.965675,57.085770 73.128647,58.700809 
M317.964539,109.448608 
	C310.225586,91.642609 299.538635,75.750626 285.313690,62.609188 
	C245.226303,25.575274 198.057236,14.001722 145.145508,25.475546 
	C113.365288,32.367039 83.438629,56.641972 87.302330,98.881561 
	C88.381683,110.681541 92.303970,121.205528 100.712807,129.842209 
	C110.911087,140.316818 123.155685,147.537842 136.736908,152.615005 
	C159.866974,161.261887 184.143814,165.878632 207.781433,172.740234 
	C225.999771,178.028732 244.491943,182.780380 260.715607,193.162018 
	C278.658264,204.643631 290.813629,220.076904 293.545685,241.983200 
	C294.788818,251.951080 294.406219,261.805389 293.116150,272.001984 
	C329.493683,234.263351 342.651978,166.947083 317.964539,109.448608 
z"/>
</svg>